<?xml version="1.0" encoding="utf-8"?>
<!-- Generator: Adobe Illustrator 16.0.0, SVG Export Plug-In . SVG Version: 6.00 Build 0)  -->
<!DOCTYPE svg PUBLIC "-//W3C//DTD SVG 1.1//EN" "http://www.w3.org/Graphics/SVG/1.1/DTD/svg11.dtd">
<svg version="1.1" id="Layer_1" xmlns="http://www.w3.org/2000/svg" xmlns:xlink="http://www.w3.org/1999/xlink" x="0px" y="0px"
	 width="290.188px" height="409.6px" viewBox="0 0 290.188 409.6" enable-background="new 0 0 290.188 409.6" xml:space="preserve">
<g>
	<path d="M68.294,0h44V18.4H86.693v18.4h25.602v18.4h-44V0z M121.094,0h44v16h-25.6v3.2h25.6V56h-44V39.2h25.6V36h-25.6V0z
		 M173.893,0h44v16h-25.6v3.2h25.6V56h-44V39.2h25.602V36h-25.602V0z"/>
	<g>
		<path fill="#264DE4" d="M290.187,80.496l-26.436,296.159L144.916,409.6L26.409,376.701L0,80.496H290.187z"/>
		<path fill="#2965F1" d="M241.118,357.797l22.592-253.082H145.094v279.703L241.118,357.797z"/>
		<path fill="#EBEBEB" d="M60.542,214.573l3.256,36.329h81.296v-36.329H60.542z M145.094,141.044H53.999l3.303,36.328h87.792
			V141.044z M145.094,346.719v-37.797l-0.16,0.043l-40.459-10.925l-2.587-28.974H65.421l5.089,57.04l74.417,20.659L145.094,346.719z
			"/>
		<path fill="#FFFFFF" d="M189.702,250.902l-4.218,47.115l-40.517,10.936v37.796l74.475-20.642l0.548-6.137l8.535-95.642
			l0.888-9.756l6.558-73.528h-91.003v36.328h51.19l-3.306,37.2h-47.885v36.329H189.702z"/>
	</g>
</g>
</svg>
