<svg xmlns="http://www.w3.org/2000/svg" width="290.188" height="409.6">
    <path fill="#264DE4" d="M290.187 80.496l-26.436 296.16L144.916 409.6 26.409 376.701 0 80.496z" />
    <path fill="#2965F1" d="M241.118 357.797l22.592-253.082H145.094v279.703z" />
    <path fill="#EBEBEB"
        d="M60.542 214.573l3.256 36.329h81.296v-36.329zM145.094 141.044H53.999l3.303 36.328h87.792zM145.094 346.719v-37.797l-.16.043-40.459-10.925-2.587-28.973H65.421l5.089 57.04 74.417 20.659z" />
    <path
        d="M68.294 0h44v18.4H86.693v18.4h25.601v18.4h-44V0zM121.094 0h44v16h-25.6v3.2h25.6V56h-44V39.2h25.6V36h-25.6V0zM173.893 0h44v16h-25.6v3.2h25.6V56h-44V39.2h25.601V36h-25.601V0z" />
    <path fill="#FFF"
        d="M189.702 250.902l-4.217 47.115-40.517 10.935v37.796l74.475-20.641.547-6.137 8.536-95.642.887-9.755 6.558-73.529h-91.003v36.328h51.19l-3.305 37.201h-47.885v36.329z" />
    </svg>
