<?xml version="1.0" encoding="utf-8"?>
<!-- Generator: Adobe Illustrator 16.0.0, SVG Export Plug-In . SVG Version: 6.00 Build 0)  -->
<!DOCTYPE svg PUBLIC "-//W3C//DTD SVG 1.1//EN" "http://www.w3.org/Graphics/SVG/1.1/DTD/svg11.dtd">
<svg version="1.1" id="Layer_1" xmlns="http://www.w3.org/2000/svg" xmlns:xlink="http://www.w3.org/1999/xlink" x="0px" y="0px"
	 width="421.813px" height="595.279px" viewBox="0 0 421.813 595.279" enable-background="new 0 0 421.813 595.279"
	 xml:space="preserve">
<g>
	<path d="M39.298,0h26.741v26.508h24.648V0h26.741v80.224H90.687V53.481H66.271v26.741H39.298 M152.773,26.74h-23.602V0h74.062
		v26.74h-23.718v53.482h-26.741 M214.974,0h28.021l17.207,28.252L277.411,0h28.02v80.224h-26.74V40.46l-18.72,28.834L241.25,40.46
		v39.764h-26.276 M318.684,0h26.742v53.714h37.902v26.51h-64.646"/>
	<g>
		<path fill="#E44D26" d="M38.368,547.611L0,116.963h421.813L383.446,547.38l-172.889,47.899"/>
		<path fill="#F16529" d="M210.906,558.656V152.308h172.422l-32.902,367.397"/>
		<path fill="#EBEBEB" d="M78.363,204.976h132.543v52.785h-74.643l4.883,54.063h69.759v52.669H92.78 M95.105,391.001h53.017
			l3.721,42.204l59.063,15.813v55.11l-108.359-30.229"/>
		<path fill="#FFFFFF" d="M342.985,204.976H210.673v52.785H338.1 M333.334,311.823H210.673v52.785h65.109l-6.162,68.597
			l-58.947,15.813v54.878l108.126-29.997"/>
	</g>
</g>
</svg>
