<svg xmlns="http://www.w3.org/2000/svg" width="421.813" height="595.279">
    <path
        d="M39.298 0h26.741v26.508h24.648V0h26.741v80.223H90.687V53.481H66.271v26.741H39.298M152.773 26.74h-23.602V0h74.062v26.74h-23.718v53.482h-26.741M214.974 0h28.021l17.207 28.252L277.411 0h28.02v80.223H278.69V40.46l-18.72 28.834-18.72-28.834v39.763h-26.276M318.684 0h26.742v53.714h37.902v26.509h-64.646" />
    <path fill="#E44D26" d="M38.368 547.611L0 116.963h421.813l-38.367 430.416-172.889 47.9" />
    <path fill="#F16529" d="M210.906 558.656V152.308h172.422l-32.902 367.398" />
    <path fill="#EBEBEB"
        d="M78.363 204.976h132.543v52.785h-74.643l4.883 54.063h69.759v52.669H92.78m2.325 26.508h53.017l3.721 42.204 59.063 15.813v55.11l-108.359-30.229" />
    <path fill="#FFF"
        d="M342.985 204.976H210.673v52.785H338.1m-4.766 54.062H210.673v52.785h65.109l-6.162 68.597-58.947 15.813v54.878l108.126-29.997" />
</svg>
