<svg xmlns="http://www.w3.org/2000/svg" width="256" height="256">
    <path fill="#F7DF1E" d="M0 0h256v256H0V0z" />
    <path
        d="M67.312 213.932l19.591-11.855c3.779 6.701 7.217 12.371 15.464 12.371 7.905 0 12.889-3.092 12.889-15.121V117.53h24.058v82.138c0 24.917-14.606 36.259-35.915 36.259-19.245 0-30.417-9.967-36.087-21.996M152.381 211.354l19.588-11.342c5.157 8.421 11.859 14.606 23.716 14.606 9.968 0 16.325-4.982 16.325-11.857 0-8.248-6.53-11.17-17.529-15.979l-6.012-2.579c-17.357-7.389-28.871-16.668-28.871-36.258 0-18.044 13.747-31.792 35.229-31.792 15.294 0 26.291 5.328 34.195 19.247l-18.73 12.028c-4.125-7.389-8.592-10.31-15.465-10.31-7.046 0-11.514 4.468-11.514 10.31 0 7.218 4.468 10.14 14.777 14.608l6.014 2.577c20.449 8.765 31.964 17.699 31.964 37.804 0 21.654-17.013 33.51-39.867 33.51-22.34.001-36.775-10.653-43.82-24.573" />
</svg>
