<?xml version="1.0" encoding="utf-8"?>
<!-- Generator: Adobe Illustrator 16.0.0, SVG Export Plug-In . SVG Version: 6.00 Build 0)  -->
<!DOCTYPE svg PUBLIC "-//W3C//DTD SVG 1.1//EN" "http://www.w3.org/Graphics/SVG/1.1/DTD/svg11.dtd">
<svg version="1.1" id="Layer_1" xmlns="http://www.w3.org/2000/svg" xmlns:xlink="http://www.w3.org/1999/xlink" x="0px" y="0px"
	 width="256px" height="256px" viewBox="0 0 256 256" enable-background="new 0 0 256 256" xml:space="preserve">
<g>
	<path fill="#F7DF1E" d="M0,0h256v256H0V0z"/>
	<path d="M67.312,213.932l19.591-11.854c3.779,6.7,7.217,12.37,15.464,12.37c7.905,0,12.889-3.092,12.889-15.12V117.53h24.059
		v82.138c0,24.917-14.606,36.26-35.916,36.26C84.154,235.928,72.982,225.96,67.312,213.932 M152.381,211.354l19.588-11.342
		c5.157,8.422,11.859,14.606,23.717,14.606c9.967,0,16.324-4.981,16.324-11.856c0-8.248-6.529-11.171-17.529-15.98l-6.012-2.578
		c-17.357-7.389-28.871-16.668-28.871-36.258c0-18.045,13.748-31.792,35.229-31.792c15.294,0,26.291,5.328,34.194,19.248
		l-18.729,12.027c-4.125-7.389-8.592-10.31-15.465-10.31c-7.046,0-11.515,4.468-11.515,10.31c0,7.219,4.469,10.141,14.777,14.608
		l6.014,2.577c20.449,8.765,31.965,17.699,31.965,37.804c0,21.653-17.014,33.511-39.867,33.511
		C173.861,235.928,159.426,225.273,152.381,211.354"/>
</g>
</svg>
