<?xml version="1.0" encoding="utf-8"?>
<!-- Generator: Adobe Illustrator 16.0.0, SVG Export Plug-In . SVG Version: 6.00 Build 0)  -->
<!DOCTYPE svg PUBLIC "-//W3C//DTD SVG 1.1//EN" "http://www.w3.org/Graphics/SVG/1.1/DTD/svg11.dtd">
<svg version="1.1" id="Layer_1" xmlns="http://www.w3.org/2000/svg" xmlns:xlink="http://www.w3.org/1999/xlink" x="0px" y="0px"
	 width="256px" height="256px" viewBox="0 0 256 256" enable-background="new 0 0 256 256" xml:space="preserve">
<g>
	<path fill="#F7DF1E" d="M0,0h256v256H0V0z"/>
	<path d="M67.312,213.932l19.591-11.855c3.779,6.701,7.217,12.371,15.464,12.371c7.905,0,12.889-3.092,12.889-15.121v-81.797h24.058
		v82.138c0,24.917-14.606,36.259-35.915,36.259c-19.245,0-30.417-9.967-36.087-21.996"/>
	<path d="M152.381,211.354l19.588-11.342c5.157,8.421,11.859,14.606,23.716,14.606c9.968,0,16.325-4.982,16.325-11.857
		c0-8.248-6.53-11.17-17.529-15.979l-6.012-2.579c-17.357-7.389-28.871-16.668-28.871-36.258c0-18.044,13.747-31.792,35.229-31.792
		c15.294,0,26.291,5.328,34.195,19.247l-18.73,12.028c-4.125-7.389-8.592-10.31-15.465-10.31c-7.046,0-11.514,4.468-11.514,10.31
		c0,7.218,4.468,10.14,14.777,14.608l6.014,2.577c20.449,8.765,31.964,17.699,31.964,37.804c0,21.654-17.013,33.51-39.867,33.51
		C173.861,235.928,159.426,225.274,152.381,211.354"/>
</g>
</svg>
