<?xml version="1.0" encoding="utf-8"?>
<!-- Generator: Adobe Illustrator 16.0.0, SVG Export Plug-In . SVG Version: 6.00 Build 0)  -->
<!DOCTYPE svg PUBLIC "-//W3C//DTD SVG 1.1//EN" "http://www.w3.org/Graphics/SVG/1.1/DTD/svg11.dtd">
<svg version="1.1" id="Layer_1" xmlns="http://www.w3.org/2000/svg" xmlns:xlink="http://www.w3.org/1999/xlink" x="0px" y="0px"
	 width="594.937px" height="446.167px" viewBox="0 0 594.937 446.167" enable-background="new 0 0 594.937 446.167"
	 xml:space="preserve">
<path fill="#CD6799" d="M512.288,256.484c-20.756,0.108-38.795,5.107-53.9,12.497c-5.541-10.976-11.084-20.756-12.063-27.928
	c-1.086-8.367-2.391-13.475-1.086-23.473c1.305-9.997,7.172-24.232,7.063-25.319c-0.107-1.087-1.303-6.194-13.256-6.303
	s-22.277,2.282-23.473,5.434s-3.477,10.323-4.998,17.713c-2.066,10.866-23.908,49.661-36.405,69.981
	c-4.021-7.933-7.498-14.888-8.26-20.43c-1.086-8.367-2.391-13.475-1.086-23.472c1.305-9.998,7.172-24.233,7.064-25.32
	c-0.109-1.086-1.305-6.193-13.258-6.303c-11.953-0.108-22.277,2.282-23.473,5.434s-2.5,10.541-4.998,17.713
	c-2.5,7.173-31.514,71.938-39.121,88.673c-3.912,8.585-7.281,15.431-9.671,20.104l0,0c0,0-0.108,0.326-0.435,0.869
	c-2.064,4.021-3.26,6.194-3.26,6.194s0,0,0,0.108c-1.63,2.935-3.369,5.651-4.238,5.651c-0.652,0-1.847-7.824,0.217-18.474
	c4.347-22.494,14.67-57.485,14.562-58.681c0-0.652,1.956-6.737-6.737-9.889c-8.476-3.151-11.519,2.064-12.28,2.064
	c-0.76,0-1.304,1.848-1.304,1.848s9.454-39.338-18.039-39.338c-17.169,0-40.859,18.8-52.595,35.752
	c-7.39,4.021-23.146,12.605-39.99,21.842c-6.411,3.586-13.04,7.172-19.234,10.541c-0.435-0.435-0.87-0.979-1.304-1.413
	c-33.252-35.534-94.758-60.636-92.15-108.342c0.978-17.387,6.955-63.026,118.122-118.447c91.498-45.097,164.305-32.6,176.91-4.89
	c18.039,39.555-39.012,113.014-133.552,123.663c-36.078,4.021-54.986-9.889-59.767-15.104c-4.999-5.434-5.76-5.76-7.607-4.673
	c-3.042,1.63-1.086,6.521,0,9.346c2.825,7.39,14.453,20.43,34.122,26.841c17.387,5.65,59.658,8.802,110.841-10.976
	c57.268-22.168,102.04-83.782,88.889-135.399C359.391,2.202,272.458-15.076,190.196,14.155
	c-48.9,17.387-101.93,44.771-140.072,80.414C4.81,136.95-2.362,173.788,0.572,189.219c10.541,54.769,86.064,90.412,116.274,116.817
	c-1.521,0.87-2.934,1.631-4.129,2.282c-15.104,7.498-72.698,37.6-87.042,69.438c-16.3,36.078,2.608,61.94,15.105,65.418
	c38.794,10.758,78.675-8.585,100.083-40.533s18.799-73.459,8.911-92.476c-0.108-0.218-0.217-0.435-0.435-0.652
	c3.912-2.281,7.933-4.673,11.845-6.954c7.715-4.564,15.322-8.803,21.842-12.279c-3.695,10.105-6.412,22.168-7.715,39.555
	c-1.63,20.43,6.737,46.944,17.712,57.376c4.89,4.564,10.649,4.673,14.344,4.673c12.823,0,18.582-10.649,24.994-23.255
	c7.824-15.431,14.887-33.36,14.887-33.36s-8.802,48.465,15.105,48.465c8.693,0,17.496-11.301,21.407-17.061c0,0.108,0,0.108,0,0.108
	s0.218-0.325,0.652-1.086c0.869-1.413,1.413-2.282,1.413-2.282s0-0.108,0-0.218c3.478-6.085,11.301-19.886,22.929-42.814
	c14.996-29.558,29.449-66.505,29.449-66.505s1.305,9.02,5.76,24.016c2.607,8.802,8.041,18.474,12.387,27.819
	c-3.477,4.89-5.65,7.606-5.65,7.606s0,0,0.109,0.108c-2.826,3.695-5.869,7.716-9.236,11.628
	c-11.846,14.126-25.973,30.318-27.928,34.99c-2.283,5.542-1.738,9.563,2.607,12.823c3.152,2.391,8.803,2.717,14.561,2.391
	c10.65-0.761,18.148-3.369,21.844-4.999c5.758-2.064,12.496-5.216,18.799-9.889c11.627-8.585,18.692-20.864,18.04-37.056
	c-0.326-8.91-3.26-17.821-6.846-26.188c1.086-1.521,2.065-3.043,3.151-4.564c18.365-26.841,32.602-56.289,32.602-56.289
	s1.303,9.019,5.758,24.015c2.174,7.607,6.629,15.866,10.541,23.907c-17.277,14.019-27.928,30.318-31.73,40.968
	c-6.846,19.777-1.521,28.688,8.584,30.753c4.564,0.978,11.084-1.195,15.865-3.26c6.086-1.956,13.258-5.325,20.104-10.324
	c11.629-8.584,22.82-20.538,22.17-36.729c-0.326-7.389-2.283-14.67-5-21.733c14.67-6.085,33.578-9.454,57.703-6.629
	c51.725,6.086,61.939,38.36,59.984,51.943c-1.957,13.584-12.822,20.973-16.408,23.255s-4.783,3.043-4.457,4.673
	c0.436,2.391,2.174,2.282,5.217,1.848c4.238-0.761,27.166-10.976,28.145-35.97C596.505,291.04,566.077,256.158,512.288,256.484z
	 M113.26,391.015c-17.169,18.69-41.076,25.754-51.4,19.777c-11.084-6.411-6.737-34.013,14.344-53.79
	c12.823-12.063,29.34-23.255,40.316-30.102c2.499-1.521,6.194-3.694,10.649-6.411c0.76-0.435,1.195-0.652,1.195-0.652l0,0
	c0.869-0.543,1.738-1.086,2.608-1.63C138.688,346.461,131.299,371.346,113.26,391.015z M238.228,306.036
	c-5.977,14.562-18.474,51.835-26.081,49.771c-6.52-1.739-10.541-29.992-1.304-57.92c4.672-14.019,14.562-30.753,20.321-37.273
	c9.345-10.432,19.669-13.909,22.168-9.671C256.483,256.484,241.922,296.908,238.228,306.036z M341.352,355.372
	c-2.498,1.304-4.889,2.173-5.977,1.521c-0.76-0.435,1.088-2.173,1.088-2.173s12.932-13.909,18.039-20.212
	c2.934-3.695,6.41-8.042,10.105-12.932c0,0.435,0,0.978,0,1.412C364.608,339.615,348.524,350.808,341.352,355.372z M420.897,337.225
	c-1.848-1.305-1.521-5.651,4.674-19.234c2.391-5.325,8.041-14.235,17.713-22.82c1.086,3.478,1.846,6.846,1.738,9.997
	C444.913,326.14,429.917,333.964,420.897,337.225z"/>
</svg>
