<svg xmlns="http://www.w3.org/2000/svg" width="594.937" height="446.167">
    <path fill="#CD6799"
        d="M512.288 256.484c-20.756.108-38.795 5.107-53.9 12.497-5.541-10.976-11.084-20.756-12.063-27.928-1.086-8.367-2.391-13.475-1.086-23.473 1.305-9.997 7.172-24.232 7.063-25.319-.107-1.087-1.303-6.194-13.256-6.303s-22.277 2.282-23.473 5.434-3.477 10.323-4.998 17.713c-2.066 10.866-23.908 49.661-36.405 69.981-4.021-7.933-7.498-14.888-8.26-20.43-1.086-8.367-2.391-13.475-1.086-23.472 1.305-9.998 7.172-24.233 7.064-25.32-.109-1.086-1.305-6.193-13.258-6.303-11.953-.108-22.277 2.282-23.473 5.434s-2.5 10.541-4.998 17.713c-2.5 7.173-31.514 71.938-39.121 88.673-3.912 8.585-7.281 15.431-9.671 20.104 0 0-.108.326-.435.869-2.064 4.021-3.26 6.194-3.26 6.194v.108c-1.63 2.935-3.369 5.651-4.238 5.651-.652 0-1.847-7.824.217-18.474 4.347-22.494 14.67-57.485 14.562-58.681 0-.652 1.956-6.737-6.737-9.889-8.476-3.151-11.519 2.064-12.28 2.064-.76 0-1.304 1.848-1.304 1.848s9.454-39.338-18.039-39.338c-17.169 0-40.859 18.8-52.595 35.752-7.39 4.021-23.146 12.605-39.99 21.842-6.411 3.586-13.04 7.172-19.234 10.541-.435-.435-.87-.979-1.304-1.413-33.252-35.534-94.758-60.636-92.15-108.342.978-17.387 6.955-63.026 118.122-118.447 91.498-45.097 164.305-32.6 176.91-4.89 18.039 39.555-39.012 113.014-133.552 123.663-36.078 4.021-54.986-9.889-59.767-15.104-4.999-5.434-5.76-5.76-7.607-4.673-3.042 1.63-1.086 6.521 0 9.346 2.825 7.39 14.453 20.43 34.122 26.841 17.387 5.65 59.658 8.802 110.841-10.976 57.268-22.168 102.04-83.782 88.889-135.399-13.147-52.376-100.08-69.654-182.342-40.423-48.9 17.387-101.93 44.771-140.072 80.414C4.81 136.95-2.362 173.788.572 189.219c10.541 54.769 86.064 90.412 116.274 116.817-1.521.87-2.934 1.631-4.129 2.282-15.104 7.498-72.698 37.6-87.042 69.438-16.3 36.078 2.608 61.94 15.105 65.418 38.794 10.758 78.675-8.585 100.083-40.533s18.799-73.459 8.911-92.476c-.108-.218-.217-.435-.435-.652 3.912-2.281 7.933-4.673 11.845-6.954a575.636 575.636 0 0121.842-12.279c-3.695 10.105-6.412 22.168-7.715 39.555-1.63 20.43 6.737 46.944 17.712 57.376 4.89 4.564 10.649 4.673 14.344 4.673 12.823 0 18.582-10.649 24.994-23.255 7.824-15.431 14.887-33.36 14.887-33.36s-8.802 48.465 15.105 48.465c8.693 0 17.496-11.301 21.407-17.061v.108s.218-.325.652-1.086c.869-1.413 1.413-2.282 1.413-2.282v-.218c3.478-6.085 11.301-19.886 22.929-42.814 14.996-29.558 29.449-66.505 29.449-66.505s1.305 9.02 5.76 24.016c2.607 8.802 8.041 18.474 12.387 27.819-3.477 4.89-5.65 7.606-5.65 7.606l.109.108c-2.826 3.695-5.869 7.716-9.236 11.628-11.846 14.126-25.973 30.318-27.928 34.99-2.283 5.542-1.738 9.563 2.607 12.823 3.152 2.391 8.803 2.717 14.561 2.391 10.65-.761 18.148-3.369 21.844-4.999 5.758-2.064 12.496-5.216 18.799-9.889 11.627-8.585 18.692-20.864 18.04-37.056-.326-8.91-3.26-17.821-6.846-26.188 1.086-1.521 2.065-3.043 3.151-4.564 18.365-26.841 32.602-56.289 32.602-56.289s1.303 9.019 5.758 24.015c2.174 7.607 6.629 15.866 10.541 23.907-17.277 14.019-27.928 30.318-31.73 40.968-6.846 19.777-1.521 28.688 8.584 30.753 4.564.978 11.084-1.195 15.865-3.26 6.086-1.956 13.258-5.325 20.104-10.324 11.629-8.584 22.82-20.538 22.17-36.729-.326-7.389-2.283-14.67-5-21.733 14.67-6.085 33.578-9.454 57.703-6.629 51.725 6.086 61.939 38.36 59.984 51.943-1.957 13.584-12.822 20.973-16.408 23.255s-4.783 3.043-4.457 4.673c.436 2.391 2.174 2.282 5.217 1.848 4.238-.761 27.166-10.976 28.145-35.97 1.626-31.949-28.802-66.831-82.591-66.505zM113.26 391.015c-17.169 18.69-41.076 25.754-51.4 19.777-11.084-6.411-6.737-34.013 14.344-53.79 12.823-12.063 29.34-23.255 40.316-30.102 2.499-1.521 6.194-3.694 10.649-6.411.76-.435 1.195-.652 1.195-.652l2.608-1.63c7.716 28.254.327 53.139-17.712 72.808zm124.968-84.979c-5.977 14.562-18.474 51.835-26.081 49.771-6.52-1.739-10.541-29.992-1.304-57.92 4.672-14.019 14.562-30.753 20.321-37.273 9.345-10.432 19.669-13.909 22.168-9.671 3.151 5.541-11.41 45.965-15.104 55.093zm103.124 49.336c-2.498 1.304-4.889 2.173-5.977 1.521-.76-.435 1.088-2.173 1.088-2.173s12.932-13.909 18.039-20.212c2.934-3.695 6.41-8.042 10.105-12.932v1.412c.001 16.627-16.083 27.82-23.255 32.384zm79.545-18.147c-1.848-1.305-1.521-5.651 4.674-19.234 2.391-5.325 8.041-14.235 17.713-22.82 1.086 3.478 1.846 6.846 1.738 9.997-.109 20.972-15.105 28.796-24.125 32.057z" />
</svg>
